# xmcd CD database file
#
# Track frame offsets:
#	150
#	18250
#	36345
#
# Disc length: 724 seconds
#
# Revision: 0
# Processed by: cddbd v1.5PL3 Copyright (c) Steve Scherf et al.
# Submitted via: CDex 1.50beta8
#
DISCID=1b02d203
DTITLE=栗林みえ - ダンダン君がスキになる
DYEAR=1998
DGENRE=Pop
TTITLE0=ダンダン君がスキになる
TTITLE1=神様と彼と私
TTITLE2=ダンダン君がスキになる(off vocal)
EXTD=YEAR: 1998
EXTT0=
EXTT1=
EXTT2=
PLAYORDER=
